<svg width="480" height="480" viewBox="0 0 480 480" fill="none" xmlns="http://www.w3.org/2000/svg">
<path fill-rule="evenodd" clip-rule="evenodd" d="M261.528 0.73909C234.408 4.92409 209.257 19.0661 193.006 39.2671C189.672 43.4101 186.954 47.1111 186.966 47.4911C186.977 47.8711 189.865 50.0731 193.383 52.3831L199.779 56.5851L201.313 54.2431C204.621 49.1951 214.803 39.0811 221.789 33.9051C230.704 27.3001 242.544 21.6321 253.945 18.5101C261.95 16.3181 264.162 16.1821 291.945 16.1821C319.762 16.1821 321.93 16.3151 329.944 18.5171C347.057 23.2181 360.299 30.8601 372.533 43.0941C381.264 51.8251 386.415 59.1721 391.524 70.1821C397.321 82.6741 399.052 91.2461 399.655 110.432L400.197 127.682H408.206H416.214L415.632 109.932C415.307 100.037 414.39 89.2951 413.56 85.6571C403.977 43.6821 372.334 12.0201 329.97 2.01609C322.258 0.195091 271.223 -0.75691 261.528 0.73909ZM261.527 33.2441C257.722 34.0001 254.185 35.0421 253.666 35.5611C252.928 36.2991 256.089 48.7861 257.436 50.4541C257.557 50.6041 260.533 50.0481 264.05 49.2191C267.567 48.3901 271.907 47.7051 273.695 47.6971L276.945 47.6821V39.6821V31.6821L272.695 31.7761C270.358 31.8281 265.332 32.4881 261.527 33.2441ZM230.878 47.0661C219.486 56.0331 210.444 67.8711 205.418 80.4031C202.797 86.9381 199.945 99.8281 199.945 105.14V108.682H207.945H215.945V105.629C215.945 99.5271 219.259 88.0041 223.221 80.3301C227.213 72.5971 234.78 63.7631 241.874 58.5531L245.304 56.0341L241.566 49.8811C239.51 46.4971 237.487 43.5171 237.07 43.2591C236.652 43.0011 233.866 44.7151 230.878 47.0661ZM175.702 68.4321C168.905 86.3561 167.969 93.5201 167.888 128.182L167.823 156.182L163.713 159.182C154.626 165.815 149.583 182.02 153.299 192.648L154.86 197.114L149.429 201.954C145.573 205.391 142.904 209.008 140.222 214.433L136.445 222.071L135.945 265.127L135.445 308.182L132.785 313.857C129.885 320.042 123.827 327.185 119.174 329.906L116.225 331.63L114.352 327.476C110.264 318.411 99.3756 306.983 90.5226 302.467C84.2426 299.263 76.4126 296.834 70.0396 296.113L64.1696 295.449L65.1696 291.816C67.6996 282.613 70.7746 279.086 85.9446 267.986C102.782 255.666 111.776 243.744 117.103 226.682C120.427 216.038 120.413 198.455 117.074 187.707C109.342 162.827 92.6626 146.076 67.9516 138.374C62.2316 136.591 58.0316 136.296 33.2306 135.933L5.01562 135.52L2.34363 138.192C-0.174374 140.71 -0.292374 141.245 0.287626 147.523C1.45963 160.203 10.0426 173.101 21.0546 178.734C23.0406 179.749 29.2556 181.944 34.8656 183.611C40.4766 185.277 46.2976 187.368 47.8016 188.256C51.7946 190.615 55.1166 196.025 55.6886 201.103C56.5386 208.647 53.6306 212.984 41.9606 221.575C21.8526 236.376 9.79862 252.711 3.98663 273.034L2.09663 279.646L5.77063 280.623C7.79163 281.161 11.2726 281.888 13.5066 282.239L17.5696 282.878L18.8506 278.53C21.1966 270.565 27.5326 258.253 32.4076 252.182C38.3676 244.761 41.0726 242.276 52.4776 233.744C66.5166 223.241 70.4906 217.353 71.6066 205.4C73.1636 188.721 63.2236 175.483 45.1356 170.146C29.7926 165.619 27.6376 164.601 22.6946 159.546C15.0476 151.726 15.1276 151.68 36.1946 151.697C57.1316 151.714 63.1826 152.766 74.1986 158.303C91.6016 167.052 103.922 187.111 103.913 206.682C103.904 225.013 95.5436 240.902 79.7496 252.602C63.4106 264.708 60.1646 267.601 56.1116 273.671C52.3976 279.232 50.0166 285.226 48.4616 292.932L47.9066 295.682H26.3796H4.85363L2.26263 298.273C-0.162374 300.698 -0.288374 301.288 0.287626 307.523C1.47663 320.389 10.0226 333.078 21.4446 338.94C23.6446 340.069 30.6196 342.449 36.9446 344.229C51.1476 348.227 53.4326 349.263 54.8346 352.339C55.9866 354.869 56.4126 370.682 55.3286 370.682C53.6576 370.682 44.2986 362.779 38.0636 356.102L31.0606 348.603L25.0296 352.893C21.7116 355.252 18.9856 357.496 18.9716 357.88C18.9566 358.264 21.2206 361.313 24.0026 364.656C30.4436 372.395 40.5946 380.837 49.0646 385.497L55.6846 389.139L57.2506 398.682C63.6866 437.892 92.3326 468.246 131.445 477.3C142.874 479.945 162.506 479.772 173.945 476.924C192.286 472.358 206.115 464.57 219.562 451.233C232.205 438.693 240.098 425.041 245.237 406.828C247.347 399.352 247.402 397.5 247.711 323.432L248.028 247.682H240.028H232.028L231.696 322.932C231.442 380.317 231.061 399.132 230.09 402.182C219.834 434.416 201.02 453.075 169.945 461.833C167.321 462.573 159.817 463.101 151.945 463.101C144.073 463.101 136.569 462.573 133.945 461.833C102.94 453.095 83.0676 433.354 73.8956 402.182C73.2326 399.931 72.4336 387.467 72.0676 373.682C71.4716 351.251 71.2356 348.844 69.2726 345.182C64.8746 336.98 60.6096 334.37 43.9446 329.68C29.7336 325.682 26.1356 323.891 21.5516 318.536C15.3386 311.277 14.5256 311.501 45.7506 311.861L73.5566 312.182L81.1086 315.917C90.2086 320.416 95.8806 326.212 100.276 335.502L103.437 342.182L104.047 368.182C104.383 382.482 105.135 395.624 105.719 397.387C111.049 413.491 125.939 427.201 141.744 430.557C151.728 432.677 163.419 431.472 171.232 427.52L175.019 425.603L171.265 418.738L167.51 411.872L163.477 413.527C160.824 414.616 156.709 415.163 151.445 415.128C144.779 415.083 142.575 414.624 138.228 412.378C131.631 408.968 126.7 404.052 123.204 397.399C120.495 392.242 120.46 391.928 120.123 370.111L119.783 348.04L126.481 344.123C134.416 339.483 141.265 332.311 145.689 324.011C151.501 313.107 151.914 309.321 151.93 266.798C151.94 240.311 152.309 227.197 153.121 224.489C154.523 219.81 161.187 211.91 164.417 211.1C165.83 210.745 168.393 211.404 171.079 212.814C174.636 214.68 177.02 215.105 183.945 215.103C191.191 215.101 193.198 214.709 197.552 212.447C205.08 208.535 208.221 205.505 212.028 198.483C215.155 192.717 215.445 191.461 215.445 183.682C215.445 175.903 215.155 174.647 212.028 168.881C210.149 165.415 207.272 161.452 205.636 160.075C201.146 156.298 193.953 152.956 188.575 152.149L183.767 151.428L184.216 122.305C184.694 91.3041 185.42 85.9731 190.887 73.2901C192.046 70.6001 192.871 68.2911 192.72 68.1591C191.847 67.3971 179.856 61.6821 179.132 61.6821C178.653 61.6821 177.109 64.7191 175.702 68.4321ZM416.445 137.301C407.641 139.131 393.212 146.082 385.665 152.128C379.17 157.331 372.228 166.231 367.682 175.182C357.582 195.07 357.482 217.647 367.401 238.182C372.799 249.356 380.871 258.419 393.945 267.986C409.115 279.086 412.19 282.613 414.72 291.816L415.72 295.449L409.7 296.13C402.745 296.917 393.18 300.182 386.694 303.983C379.98 307.918 370.517 317.999 366.79 325.188L363.501 331.533L360.634 329.857C356.058 327.182 349.986 320.001 347.105 313.857L344.445 308.182V272.182V236.182L347.19 228.682C348.701 224.557 350.051 220.751 350.19 220.225C350.453 219.239 339.341 212.76 337.301 212.71C335.698 212.671 331.406 223.844 329.524 232.953C327.285 243.792 327.256 302.134 329.485 311.589C332.645 324.994 341.627 337.233 353.328 344.076L359.945 347.946V364.314C359.945 382.463 360.265 381.765 353.096 379.235C326.574 369.878 306.564 348.446 298.817 321.1C296.746 313.789 296.545 310.669 296.187 280.432L295.8 247.682H287.872H279.945V318.472C279.945 378.811 280.171 390.13 281.476 395.14C287.783 419.355 310.937 434.685 335.448 430.874C352.617 428.205 366.299 416.817 373.232 399.427C375.1 394.74 375.383 391.416 375.888 368.182L376.453 342.182L379.614 335.502C384.009 326.212 389.681 320.416 398.781 315.917L406.333 312.182L434.139 311.861C465.364 311.501 464.551 311.277 458.338 318.536C453.755 323.89 450.158 325.681 435.945 329.682C422.787 333.386 418.526 335.333 414.809 339.34C408.807 345.811 408.532 347.161 407.809 373.682C407.442 387.157 406.618 399.982 405.979 402.182C403.092 412.122 399.238 420.608 394.214 428.087L388.777 436.182L394.611 441.452L400.445 446.722L402.745 443.952C407.719 437.961 415.002 425.002 417.906 416.976C422.581 404.055 423.945 394.009 423.945 372.485C423.945 361.051 424.365 352.765 425.006 351.568C425.589 350.478 427.277 349.115 428.756 348.539C433.388 346.734 451.41 341.814 451.834 342.237C452.644 343.048 446.692 350.942 439.804 358.194L432.743 365.627L437.466 371.154C440.063 374.195 442.679 376.682 443.278 376.682C445.011 376.682 457.156 363.765 461.613 357.182C468.131 347.555 473.96 335.036 476.716 324.746C478.928 316.49 479.278 313.13 479.274 300.182C479.271 287.919 478.876 283.739 477.108 277.274C470.61 253.508 459.12 237.174 437.929 221.575C426.259 212.984 423.351 208.647 424.201 201.103C424.773 196.025 428.095 190.615 432.088 188.256C433.592 187.368 439.413 185.277 445.024 183.611C450.634 181.944 456.849 179.749 458.835 178.734C469.847 173.101 478.43 160.203 479.602 147.523C480.178 141.288 480.052 140.698 477.627 138.273L475.036 135.682L449.24 135.764C430.814 135.822 421.445 136.261 416.445 137.301ZM280.383 152.557C275.493 153.828 266.994 158.835 264.307 162.029C262.947 163.645 260.625 167.265 259.146 170.075C256.834 174.469 256.461 176.368 256.478 183.682C256.496 191.419 256.802 192.747 259.888 198.483C263.663 205.499 266.799 208.529 274.338 212.447C278.693 214.71 280.696 215.101 287.945 215.101C295.237 215.101 297.187 214.716 301.662 212.392C308.287 208.95 313.213 204.024 316.655 197.399C318.979 192.924 319.364 190.974 319.364 183.682C319.364 176.433 318.973 174.43 316.71 170.075C312.813 162.576 309.759 159.395 302.997 155.791C296.536 152.347 286.639 150.931 280.383 152.557ZM461.945 153.185C461.945 154.012 459.808 156.874 457.195 159.546C452.252 164.601 450.097 165.619 434.754 170.146C416.666 175.483 406.726 188.721 408.283 205.4C409.399 217.353 413.373 223.241 427.412 233.744C438.817 242.276 441.522 244.761 447.482 252.182C455.468 262.125 461.524 276.844 463.426 290.932L464.068 295.682H448.025H431.983L431.428 292.932C429.873 285.226 427.492 279.232 423.778 273.671C419.725 267.601 416.479 264.708 400.14 252.602C387.904 243.538 380.632 232.939 377.484 219.584C370.592 190.347 389.22 160.39 418.745 153.231C422.474 152.327 430.928 151.82 443.195 151.765C459.25 151.694 461.945 151.898 461.945 153.185ZM192.708 170.354C197.777 174.139 199.445 177.414 199.445 183.583C199.445 188.291 198.955 189.98 196.751 192.869C189.76 202.036 177.579 201.77 170.507 192.297C167.307 188.011 167.616 179.113 171.125 174.513C172.598 172.581 175.298 170.238 177.125 169.307C181.354 167.151 189.115 167.672 192.708 170.354ZM294.6 169.323C304.762 174.145 306.915 186.712 298.945 194.682C292.368 201.259 283.818 201.335 277.029 194.876C264.121 182.598 278.503 161.684 294.6 169.323ZM178.4 178.137C173.439 183.097 176.954 191.682 183.945 191.682C185.893 191.682 187.943 190.775 189.49 189.227C191.038 187.68 191.945 185.63 191.945 183.682C191.945 181.734 191.038 179.684 189.49 178.137C187.943 176.589 185.893 175.682 183.945 175.682C181.997 175.682 179.947 176.589 178.4 178.137ZM282.4 178.137C277.439 183.097 280.954 191.682 287.945 191.682C292.056 191.682 295.945 187.793 295.945 183.682C295.945 179.571 292.056 175.682 287.945 175.682C285.997 175.682 283.947 176.589 282.4 178.137ZM183.937 276.932C183.933 293.019 183.456 309.107 182.877 312.682C181.365 322.016 177.473 333.039 172.639 341.682C166.768 352.18 152.141 366.687 141.445 372.619C137.045 375.059 133.283 377.172 133.085 377.313C132.609 377.652 138.123 391.682 138.732 391.682C138.991 391.682 143.09 389.633 147.84 387.128C160.954 380.214 173.185 369.367 182.2 356.657C183.895 354.266 183.946 354.831 183.676 373.182C183.402 391.839 183.346 392.28 180.569 397.601L177.74 403.019L180.093 404.842C186.442 409.762 189.926 411.812 190.909 411.204C192.786 410.044 197.649 399.397 198.82 393.883C199.593 390.243 199.945 366.522 199.945 318.133V247.682H191.945H183.945L183.937 276.932ZM302.854 362.951C313.671 376.626 334.678 390.819 350.689 395.271L356.842 396.981L355.376 399.816C353.122 404.174 347.425 409.398 341.662 412.392C337.187 414.716 335.237 415.101 327.945 415.101C320.696 415.101 318.693 414.71 314.338 412.447C306.81 408.535 303.669 405.505 299.862 398.483L296.445 392.182L296.114 373.184C295.932 362.735 295.991 354.41 296.246 354.684C296.5 354.958 299.474 358.678 302.854 362.951ZM250.662 425.395C246.968 427.345 243.945 429.295 243.945 429.728C243.945 432.077 254.913 446.341 261.718 452.843C288.499 478.429 326.281 486.292 361.392 473.588C368.884 470.877 381.543 463.817 387.884 458.813L390.322 456.889L385.127 450.892L379.932 444.896L372.094 450.142C364.664 455.115 355.986 458.997 345.945 461.838C340.12 463.487 315.929 463.469 309.945 461.811C289.109 456.04 272.632 444.588 261.681 428.264L257.378 421.849L250.662 425.395Z" fill="url(#paint0_linear_607_8)"/>
<defs>
<linearGradient id="paint0_linear_607_8" x1="239.944" y1="0" x2="239.944" y2="479.56" gradientUnits="userSpaceOnUse">
<stop stop-color="#BE6AFF"/>
<stop offset="1" stop-color="#4F6BFF"/>
</linearGradient>
</defs>
</svg>
